<!-- 2026-04-15 优化 — 品牌主 Logo 资源显式化
     变更类型：优化
     功能描述：将项目主 Logo 调整为可直接作为静态资源引用的紫色 SVG。
     设计思路：原文件依赖 currentColor 与特定 class，改为显式紫色描边与标准 xmlns，避免作为 img 使用时颜色漂移。
     参数与返回值：静态 SVG 资源，无运行时参数与返回值。
     影响范围：web-hub 内所有直接引用 logo.svg 的品牌展示位。
     潜在风险：无已知风险。
-->
<svg
            xmlns="http://www.w3.org/2000/svg"
            width="24"
            height="24"
            viewBox="0 0 24 24"
            fill="none"
            stroke="#7C3AED"
            stroke-width="2"
            stroke-linecap="round"
            stroke-linejoin="round"
          >
            <path
              d="M9.937 15.5A2 2 0 0 0 8.5 14.063l-6.135-1.582a.5.5 0 0 1 0-.962L8.5 9.936A2 2 0 0 0 9.937 8.5l1.582-6.135a.5.5 0 0 1 .963 0L14.063 8.5A2 2 0 0 0 15.5 9.937l6.135 1.581a.5.5 0 0 1 0 .964L15.5 14.063a2 2 0 0 0-1.437 1.437l-1.582 6.135a.5.5 0 0 1-.963 0z"
            />
            <path d="M20 3v4" />
            <path d="M22 5h-4" />
          </svg>
