<svg xmlns="http://www.w3.org/2000/svg" viewBox="0 0 32 32" fill="none">
  <defs>
    <linearGradient id="bg" x1="0" y1="0" x2="32" y2="32" gradientUnits="userSpaceOnUse">
      <stop offset="0%" stop-color="#8b5cf6"/>
      <stop offset="100%" stop-color="#6366f1"/>
    </linearGradient>
  </defs>
  <rect width="32" height="32" rx="8" fill="url(#bg)"/>
  <path d="M16 6l1.76 5.24L23 13l-5.24 1.76L16 20l-1.76-5.24L9 13l5.24-1.76L16 6z" fill="white" opacity="0.95"/>
  <path d="M22 18l1.06 3.16L26.22 22.22l-3.16 1.06L22 26.44l-1.06-3.16L17.78 22.22l3.16-1.06L22 18z" fill="white" opacity="0.7"/>
  <path d="M11 19l0.7 2.1L13.8 21.8l-2.1 0.7L11 24.6l-0.7-2.1L8.2 21.8l2.1-0.7L11 19z" fill="white" opacity="0.5"/>
</svg>
